<?xml version="1.0" encoding="UTF-8" standalone="no"?>
<!-- Generator: Adobe Illustrator 12.0.0, SVG Export Plug-In . SVG Version: 6.00 Build 51448)  -->

<svg
   version="1.1"
   id="svg8"
   sodipodi:docname="logo-mono.svg"
   width="512"
   height="512"
   inkscape:version="1.1.2 (0a00cf5339, 2022-02-04)"
   xmlns:inkscape="http://www.inkscape.org/namespaces/inkscape"
   xmlns:sodipodi="http://sodipodi.sourceforge.net/DTD/sodipodi-0.dtd"
   xmlns="http://www.w3.org/2000/svg"
   xmlns:svg="http://www.w3.org/2000/svg">
  <defs
     id="defs12" />
  <sodipodi:namedview
     id="namedview10"
     pagecolor="#505050"
     bordercolor="#eeeeee"
     borderopacity="1"
     inkscape:pageshadow="0"
     inkscape:pageopacity="0"
     inkscape:pagecheckerboard="0"
     showgrid="false"
     inkscape:zoom="0.59625"
     inkscape:cx="130.81761"
     inkscape:cy="166.03774"
     inkscape:window-width="1920"
     inkscape:window-height="1007"
     inkscape:window-x="0"
     inkscape:window-y="0"
     inkscape:window-maximized="1"
     inkscape:current-layer="FireflyIII_Logo" />
  <g
     id="FireflyIII_Logo"
     transform="matrix(0.79112347,0,0,0.79112347,-466.53053,-106.48759)">
    <path
       id="flame"
       style="fill:#ffffff;stroke-width:0.791123"
       d="m 215.63086,0 c 0,0 19.54452,66.200234 -17.98242,104.74219 -37.52774,38.54195 -33.46996,81.14058 -18.25586,101.42578 15.21409,20.2852 14.19878,35.49903 2.02734,46.65625 -12.17064,11.15721 -22.31257,19.27043 -29.41211,1.01367 -7.09954,-18.25676 -15.21436,-18.25678 -18.25781,-27.38477 -3.04345,-9.12798 -9.12891,-25.35546 -9.12891,-25.35546 0,0 -19.26997,30.42683 -31.441402,48.68359 -12.171435,18.25676 -12.170403,46.65779 -4.056641,61.87109 8.113762,15.21331 5.069697,33.46988 -1.015625,58.82618 -6.085322,25.35629 2.028775,63.89723 30.427738,79.11132 28.39896,15.2141 62.88435,27.38607 78.09765,41.58594 15.21331,14.19988 50.71398,27.38439 96.35547,17.24219 45.6415,-10.1422 103.45545,-56.79782 113.59766,-88.24024 0,0 26.36993,-29.41312 21.29883,-67.95507 -5.07111,-38.54196 -23.32765,-37.52823 -31.44141,-66.94141 -8.11376,-29.41318 17.55764,-22.16232 -4.05664,-72.66211 0,0 -9.63495,-24.03545 -46.24024,-41.35156 -23.5201,-11.12557 -7.51499,-61.45342 -49.0996,-112.166018 C 255.46226,8.3889658 215.63086,0 215.63086,0 Z m -6.96484,250.72656 c 29.29405,-0.18783 45.65893,29.35279 45.6582,29.35352 37.97393,-4.59801 75.37382,3.2421 93.30859,20.05664 11.34157,10.63275 20.59486,20.40084 25.20508,39.14648 -3.9688,-1.40774 -15.79135,-4.42992 -30.3418,3.82813 0,0 -21.13128,-7.10848 -32.42773,2.05273 -11.73078,9.51326 -12.89553,20.65963 -12.2832,33.84766 0,0 10.15651,-34.74208 35.80078,-25.76758 0,0 -18.15374,31.98441 10.0957,37.58398 0,0 6.67342,-0.0397 12.18359,-3.36718 5.25623,-3.1732 9.36948,-9.04484 7.6836,-19.63086 0,0 -3.44116,-10.54987 -12.31836,-16.94531 0,0 8.07958,-5.66969 23.39844,-2.19727 0.72665,5.08369 1.18593,10.72655 1.33007,17.08203 0.99603,43.89628 -28.28125,72.58399 -28.28125,72.58399 v 19.77929 c -3.56005,7.12011 -9.49432,9.49219 -29.66796,9.49219 -20.17365,0 -22.94141,-5.53711 -22.94141,-5.53711 v -3.95508 c -30.85382,3.95562 -47.66602,0 -47.66602,0 0,3.56006 -8e-5,4.15243 -2.96679,7.11914 -2.96672,2.96672 -21.36042,3.16531 -35.20508,1.1875 -13.84466,-1.97781 -12.26172,-8.70312 -12.26172,-8.70312 V 437.5625 C 174.42173,421.74003 168.0918,397.61133 168.0918,397.61133 l -13.04297,0.25195 c -7.09954,0 -10.14258,-9.12695 -10.14258,-9.12695 v -29.41406 c 0,-9.12878 9.12891,-11.15821 9.12891,-11.15821 l 12.6582,-0.97265 c 4.29976,-30.40604 36.02734,-53.79688 36.02734,-53.79688 l -1.77929,-41.94336 c 2.66614,-0.479 5.24206,-0.70871 7.72461,-0.72461 z m -11.69727,100.60352 a 7.515673,7.515673 0 0 0 -7.51563,7.51562 7.515673,7.515673 0 0 0 7.51563,7.51563 7.515673,7.515673 0 0 0 7.51563,-7.51563 7.515673,7.515673 0 0 0 -7.51563,-7.51562 z m 146.13672,6.42578 c 0,0 2.64857,0.66791 8.30273,10 5.4991,9.07498 -3.86718,13.55078 -3.86718,13.55078 -17.63889,1.34016 -4.43555,-23.55078 -4.43555,-23.55078 z"
       transform="matrix(1.2640252,0,0,1.2640252,589.70635,134.603)" />
  </g>
</svg>
