<?xml version="1.0" encoding="UTF-8" standalone="no"?>
<!-- Generator: Adobe Illustrator 12.0.0, SVG Export Plug-In . SVG Version: 6.00 Build 51448)  -->

<svg
   version="1.1"
   id="svg8"
   sodipodi:docname="logo.svg"
   width="512"
   height="512"
   inkscape:version="1.1.2 (0a00cf5339, 2022-02-04)"
   xmlns:inkscape="http://www.inkscape.org/namespaces/inkscape"
   xmlns:sodipodi="http://sodipodi.sourceforge.net/DTD/sodipodi-0.dtd"
   xmlns="http://www.w3.org/2000/svg"
   xmlns:svg="http://www.w3.org/2000/svg">
  <defs
     id="defs12" />
  <sodipodi:namedview
     id="namedview10"
     pagecolor="#505050"
     bordercolor="#eeeeee"
     borderopacity="1"
     inkscape:pageshadow="0"
     inkscape:pageopacity="0"
     inkscape:pagecheckerboard="0"
     showgrid="false"
     inkscape:zoom="0.59625"
     inkscape:cx="130.81761"
     inkscape:cy="166.03774"
     inkscape:window-width="1920"
     inkscape:window-height="1007"
     inkscape:window-x="0"
     inkscape:window-y="0"
     inkscape:window-maximized="1"
     inkscape:current-layer="svg8" />
  <g
     id="FireflyIII_Logo"
     transform="matrix(0.79112347,0,0,0.79112347,-466.53053,-106.48759)">
    <path
       id="flame"
       fill="#cd5029"
       d="m 862.27,134.603 c 0,0 24.705,83.679 -22.73,132.397 -47.436,48.718 -42.308,102.564 -23.077,128.205 19.231,25.641 17.948,44.871 2.563,58.974 -15.384,14.103 -28.205,24.359 -37.179,1.282 -8.974,-23.077 -19.23,-23.077 -23.077,-34.615 -3.847,-11.538 -11.539,-32.051 -11.539,-32.051 0,0 -24.359,38.462 -39.744,61.539 -15.385,23.077 -15.384,58.975 -5.128,78.205 10.256,19.23 6.41,42.307 -1.282,74.358 -7.692,32.051 2.564,80.769 38.461,100 35.897,19.231 79.488,34.615 98.718,52.564 19.23,17.949 64.103,34.615 121.795,21.795 57.692,-12.82 130.77,-71.794 143.59,-111.538 0,0 33.333,-37.179 26.923,-85.897 -6.41,-48.718 -29.488,-47.437 -39.744,-84.616 -10.256,-37.179 22.193,-28.012 -5.128,-91.845 0,0 -12.178,-30.382 -58.448,-52.27 -29.73,-14.063 -9.5,-77.68 -62.064,-141.782 -52.564,-64.102 -102.91,-74.705 -102.91,-74.705 z" />
    <path
       id="pig-body"
       fill="#ffffff"
       d="m 843.701,452.443 2.249,53.018 c 0,0 -40.103,29.566 -45.538,68 l -16.001,1.231 c 0,0 -11.539,2.564 -11.539,14.103 0,11.539 0,37.18 0,37.18 0,0 3.846,11.538 12.82,11.538 l 16.487,-0.319 c 0,0 8,30.5 36.5,50.5 v 25.5 c 0,0 -2,8.5 15.5,11 17.5,2.5 40.75,2.25 44.5,-1.5 3.75,-3.75 3.75,-4.5 3.75,-9 0,0 21.25,5 60.25,0 v 5 c 0,0 3.5,7 29,7 25.5,0 33,-3 37.5,-12 v -25 c 0,0 37.009,-36.264 35.75,-91.75 -1.083,-47.75 -15.901,-64.299 -35.806,-82.96 -22.67,-21.254 -69.944,-31.165 -117.944,-25.353 10e-4,-10e-4 -24.341,-43.938 -67.478,-36.188 z" />
    <circle
       id="eye"
       fill="#cd5029"
       cx="838.67999"
       cy="588.19299"
       r="9.5" />
    <path
       id="tail"
       fill="#cd5029"
       d="m 1063.292,564.309 c 0,0 -18.218,-8.742 -40.662,3.996 0,0 -26.711,-8.987 -40.99,2.593 -14.828,12.025 -16.299,26.115 -15.525,42.785 0,0 12.837,-43.915 45.252,-32.571 0,0 -22.947,40.43 12.761,47.508 0,0 8.436,-0.05 15.401,-4.256 6.644,-4.011 11.842,-11.433 9.711,-24.814 0,0 -4.348,-13.336 -15.569,-21.42 0,0 11.042,-7.806 31.988,-2.209 z" />
    <path
       id="tail-negative"
       fill="#ffffff"
       d="m 1023.401,586.816 c 0,0 -16.689,31.461 5.607,29.767 0,0 11.838,-5.656 4.887,-17.127 -7.147,-11.796 -10.494,-12.64 -10.494,-12.64 z" />
  </g>
</svg>
